<?xml version="1.0" encoding="UTF-8"?>
<svg id="Capa_1" data-name="Capa 1" xmlns="http://www.w3.org/2000/svg" viewBox="0 0 220 220">
  <defs>
    <style>
      .cls-1 {
        fill: #fff;
        fill-rule: evenodd;
      }
    </style>
  </defs>
  <path class="cls-1" d="M65.08,28.34c-20.55,0-37.1,16.55-37.1,37.11v89.11c0,20.55,16.55,37.11,37.1,37.11h89.84c20.55,0,37.1-16.55,37.1-37.11v-89.11c0-20.55-16.55-37.11-37.1-37.11h-89.84ZM118.74,172.41h-27.97v-52.89h-15.83v-23.54h15.82c0-14.02-.37-26.04,6.43-35.75,7.14-10.22,17.64-11.84,29.41-12.62,6.34-.19,12.59.59,18.45,1.83l-.1,21.39c-7.54-.61-17.49-.89-21.99,3.4-5.01,4.78-4.23,13.51-4.23,21.75l25.1.02-4.32,23.52h-20.78s0,52.89,0,52.89Z"/>
</svg>