<?xml version="1.0" encoding="UTF-8"?>
<svg id="Capa_1" data-name="Capa 1" xmlns="http://www.w3.org/2000/svg" viewBox="0 0 220 220">
  <defs>
    <style>
      .cls-1 {
        fill: #fff;
        fill-rule: evenodd;
      }
    </style>
  </defs>
  <path class="cls-1" d="M65.08,28.34c-20.55,0-37.1,16.55-37.1,37.11v89.11c0,20.55,16.55,37.11,37.1,37.11h89.84c20.55,0,37.1-16.55,37.1-37.11v-89.11c0-20.55-16.55-37.11-37.1-37.11h-89.84ZM91.22,110c0-10.27,8.39-18.78,18.78-18.78s18.78,8.39,18.78,18.78-8.39,18.78-18.78,18.78-18.78-8.39-18.78-18.78h0ZM81.07,110c-.12-15.91,12.9-28.93,28.93-28.93,15.91-.12,28.93,12.9,28.93,28.93.12,15.91-12.9,28.93-28.93,28.93-15.91.12-28.93-12.9-28.93-28.93h0ZM133.29,79.82c0-3.76,3.01-6.76,6.77-6.76s6.76,3,6.76,6.76-3.01,6.76-6.76,6.76-6.77-3.01-6.77-6.76h0ZM87.33,155.96c-5.51-.25-8.51-1.13-10.52-1.87-2.63-1-4.51-2.26-6.51-4.26-2-1.88-3.26-3.76-4.26-6.52-.75-1.88-1.75-4.88-2-10.39-.25-6.01-.25-7.76-.37-22.91,0-14.9.12-16.78.37-22.67.25-5.51,1.13-8.51,1.88-10.52,1-2.63,2.26-4.51,4.26-6.51,1.88-2,3.76-3.25,6.51-4.26,1.88-.75,4.88-1.75,10.39-2,6.01-.25,7.77-.25,22.92-.38,14.9,0,16.78.12,22.67.38,5.51.25,8.51,1.13,10.52,1.87,2.63,1,4.51,2.26,6.51,4.26,2,1.88,3.26,3.76,4.26,6.52.75,1.88,1.76,4.88,2,10.39.25,6.01.25,7.76.37,22.91,0,14.9-.12,16.78-.37,22.67-.25,5.51-1.13,8.51-1.88,10.52-1,2.63-2.25,4.51-4.26,6.51-1.88,2-3.76,3.25-6.51,4.26-1.88.75-4.88,1.75-10.39,2-6.01.25-7.76.25-22.91.38-14.9,0-16.78-.12-22.67-.38h0ZM86.58,53.9c6.13-.25,8.01-.37,23.42-.37s17.15,0,23.17.25c6.01.25,10.14,1.25,13.65,2.63,3.75,1.5,6.89,3.38,10.14,6.51,3.13,3.13,5.01,6.26,6.52,10.02,1.37,3.63,2.38,7.64,2.63,13.77.25,6.01.38,7.89.38,23.29s0,17.16-.25,23.17c-.25,6.01-1.25,10.14-2.63,13.65-1.5,3.75-3.38,6.88-6.51,10.14-3.13,3.13-6.26,5.01-10.02,6.51-3.63,1.38-7.64,2.38-13.65,2.63-6.14.25-8.01.37-23.42.37s-17.16,0-23.17-.25c-6.01-.25-10.14-1.25-13.65-2.63-3.75-1.5-6.88-3.38-10.14-6.51-3.13-3.13-5.01-6.26-6.51-10.02-1.38-3.63-2.38-7.64-2.63-13.65-.25-6.14-.37-8.01-.37-23.42s0-17.16.25-23.17c.25-6.01,1.25-10.14,2.63-13.65,1.5-3.75,3.38-6.89,6.51-10.14,3.13-3.13,6.26-5.01,10.02-6.51,3.63-1.38,7.64-2.38,13.65-2.63Z"/>
</svg>