<?xml version="1.0" encoding="UTF-8"?>
<svg id="Capa_2" data-name="Capa 2" xmlns="http://www.w3.org/2000/svg" viewBox="0 0 220 220">
  <defs>
    <style>
      .cls-1 {
        fill: #fff;
      }
    </style>
  </defs>
  <path class="cls-1" d="M157.22,28.78H62.78c-18.7,0-34,15.3-34,34v94.44c0,18.7,15.3,34,34,34h94.44c18.7,0,34-15.3,34-34V62.78c0-18.7-15.3-34-34-34ZM86.16,155.3h-19.59v-59.59h19.59v59.59ZM76.36,88.44c-5.99,0-10.84-4.85-10.84-10.84s4.85-10.85,10.84-10.85,10.85,4.86,10.85,10.85-4.86,10.84-10.85,10.84ZM154.49,155.3h-19.58v-31.48c0-10.95-5.06-12.9-9.06-12.9s-9.16,1.96-9.69,9.46v34.92h-19.58v-59.59h19.58v6.78c3.71-4.59,9-8.19,16.53-8.19,20.92,0,21.8,19.03,21.8,19.03v41.97Z"/>
</svg>