<?xml version="1.0" encoding="UTF-8"?>
<svg id="Capa_1" data-name="Capa 1" xmlns="http://www.w3.org/2000/svg" viewBox="0 0 220 220">
  <defs>
    <style>
      .cls-1 {
        fill: #fff;
        fill-rule: evenodd;
      }
    </style>
  </defs>
  <path class="cls-1" d="M95.39,109.74l11.2,9.05c4.01,3.39,4.7,3.95,8.73.11l10.83-9.16,12.36,13.02c7.51,7.59,15.2,16.22,22.44,23.45l4.94,5.32H53.86c1.15-1.72,34.55-34.93,36.21-36.6,1.32-1.32,4.01-4.31,5.32-5.19h0ZM130.77,105.9l13.51,14.18c2.2,2.64,3,3.07,4.89,5.11.51.55.54.74,1.02,1.28,1.6,1.82,3.49,3.18,4.93,5.07l14.61,15.13v-74.09l-21.99,18.77c-.83.74-1.68,1.33-2.55,2.07l-9.64,8.31c-.91.77-1.62,1.37-2.52,2.09l-2.27,2.09h0ZM50.33,146.47l40.44-40.57-20.22-16.44c-.71-.56-18.91-15.65-20.29-16.38l.06,73.38h0ZM54.37,68.47c.7,1.05,33.41,27.49,35.49,29.11l17.64,14.4c.61.54,1.17.97,1.84,1.49.71.55,1.06.97,1.68,1.39l10.33-8.9c.59-.5,1.11-.93,1.68-1.39l11.89-10.16c.58-.54,1.05-.86,1.67-1.4.65-.57,1-.8,1.66-1.42,4.01-3.73,11.69-9.56,15.38-13.07l11.73-10.06H54.37ZM44.37,69.24v81.52c0,3.15,3.52,6.67,6.66,6.67h117.93c1.66,0,3.79-1.34,4.69-2.23.99-.98,1.97-3.04,1.97-4.95v-81.01c0-3.15-3.52-6.67-6.66-6.67H51.04c-3.14,0-6.66,3.52-6.66,6.67Z"/>
</svg>