<?xml version="1.0" encoding="UTF-8"?>
<svg id="Capa_1" data-name="Capa 1" xmlns="http://www.w3.org/2000/svg" viewBox="0 0 220 220">
  <defs>
    <style>
      .cls-1 {
        fill: #fff;
        fill-rule: evenodd;
      }
    </style>
  </defs>
  <path class="cls-1" d="M69.37,28.34c-20.55,0-37.1,16.55-37.1,37.11v89.11c0,20.55,16.55,37.11,37.1,37.11h89.84c20.55,0,37.1-16.55,37.1-37.11v-89.11c0-20.55-16.55-37.11-37.1-37.11h-89.84ZM145.11,79.85c3.8,2.46,8.26,3.91,13.06,3.91v17.31c-8.93,0-17.31-2.9-24.12-7.7v35.06c0,17.64-14.3,31.93-31.83,31.93-6.7,0-13.06-2.12-18.2-5.81-8.26-5.69-13.62-15.3-13.62-26.13,0-17.53,14.3-31.82,31.82-31.82,1.56,0,2.9.22,4.35.33v17.64c-1.34-.45-2.79-.67-4.35-.67-7.93,0-14.51,6.48-14.51,14.52,0,5.58,3.13,10.5,7.81,12.95,2.01,1.01,4.36,1.67,6.7,1.67,7.93,0,14.18-6.25,14.52-14.07V59.64h17.31c0,1.45.22,3.02.44,4.36,1.23,6.59,5.14,12.28,10.61,15.86Z"/>
</svg>