<?xml version="1.0" encoding="UTF-8"?>
<svg id="Capa_1" data-name="Capa 1" xmlns="http://www.w3.org/2000/svg" viewBox="0 0 220 220">
  <defs>
    <style>
      .cls-1 {
        fill: #fff;
        fill-rule: evenodd;
      }
    </style>
  </defs>
  <path class="cls-1" d="M65.08,28.34c-20.55,0-37.1,16.55-37.1,37.11v89.11c0,20.55,16.55,37.11,37.1,37.11h89.84c20.55,0,37.1-16.55,37.1-37.11v-89.11c0-20.55-16.55-37.11-37.1-37.11h-89.84ZM140.53,62.02h16.42l-35.66,40.79,41.82,55.16h-32.84l-25.4-33.61-29.5,33.61h-16.42l38.23-43.61-40.28-52.34h33.61l23.09,30.79,26.94-30.79h0ZM134.88,148.23l-59.01-76.97h9.75l58.24,76.97h-8.98Z"/>
</svg>