<?xml version="1.0" encoding="UTF-8"?>
<svg id="Capa_1" data-name="Capa 1" xmlns="http://www.w3.org/2000/svg" viewBox="0 0 220 220">
  <defs>
    <style>
      .cls-1 {
        fill: #fff;
        fill-rule: evenodd;
      }
    </style>
  </defs>
  <path class="cls-1" d="M69.37,28.34c-20.55,0-37.1,16.55-37.1,37.11v89.11c0,20.55,16.55,37.11,37.1,37.11h89.84c20.55,0,37.1-16.55,37.1-37.11v-89.11c0-20.55-16.55-37.11-37.1-37.11h-89.84ZM168.55,87.9s1.11,8.96,1.11,17.92v8.35c0,8.96-1.11,17.92-1.11,17.92,0,0-1.1,7.61-4.42,10.92-4.17,4.42-8.96,4.54-11.05,4.79-15.59,1.1-38.78,1.1-38.78,1.1,0,0-28.73-.24-37.68-1.1-2.45-.49-7.98-.37-12.15-4.67-3.32-3.43-4.42-11.04-4.42-11.04,0,0-1.1-8.96-1.1-17.92v-8.35c0-8.96,1.1-17.92,1.1-17.92,0,0,1.1-7.61,4.42-11.04,4.17-4.42,8.96-4.42,11.05-4.67,15.59-1.1,38.79-1.1,38.79-1.1,0,0,23.2,0,38.66,1.1,2.21.25,6.99.25,11.17,4.67,3.31,3.43,4.42,11.04,4.42,11.04h0ZM102.88,124.36v-31.05l29.82,15.59-29.82,15.47Z"/>
</svg>